<?xml version="1.0" encoding="utf-8"?>
<!-- Generator: Adobe Illustrator 27.4.0, SVG Export Plug-In . SVG Version: 6.00 Build 0)  -->
<svg version="1.1" id="Layer_1" xmlns="http://www.w3.org/2000/svg" xmlns:xlink="http://www.w3.org/1999/xlink" x="0px" y="0px"
	 viewBox="0 0 541 220.4" style="enable-background:new 0 0 541 220.4;" xml:space="preserve">
<style type="text/css">
	.st0{fill:url(#SVGID_1_);}
</style>
<g>
	
		<linearGradient id="SVGID_1_" gradientUnits="userSpaceOnUse" x1="9.2" y1="1072.0367" x2="527.6" y2="1072.0367" gradientTransform="matrix(1 0 0 1 0 -961.7867)">
		<stop  offset="0" style="stop-color:#01593F"/>
		<stop  offset="0.3743" style="stop-color:#09964B"/>
		<stop  offset="0.648" style="stop-color:#2CB979"/>
		<stop  offset="1" style="stop-color:#47CB9B"/>
	</linearGradient>
	<path class="st0" d="M208.8,130.1c0,1.6,0.4,3.6,0.4,6v17.2c-4.8-1.2-10.4-2-15.6-2c-17.6,0-24.8,8.4-24.8,16c0,8.4,8.4,14,21.6,14
		c6,0,12.8-1.2,18.8-4v26.8c-9.2,4-19.6,6.4-28.8,6.4c-27.6,0-49.2-16.4-49.2-41.6c0-27.2,25.6-41.6,54.8-41.6
		C193.6,127.6,201.6,128.4,208.8,130.1z M200.8,70.8c-16.4,0-32,4-44,10.4c-1.2,8-4,16-8,22.8l11.6,11.6
		c7.6-7.6,22.4-12.8,37.2-12.8c18,0,29.2,10.8,29.2,26.4v6.8l0,0l0,0v24l0,0v4l0,0v26.8l0,0v16.4H266v-80
		C266.4,89.7,237.6,70.8,200.8,70.8z M82.8,126.1c18.8,0,35.6-9.2,46-23.2c3.2-4.4,6-9.2,8-14.8c1.2-3.6,2.4-7.2,2.8-11.2
		c0.4-2.8,0.8-5.6,0.8-8.8l0,0c0-2.8-0.4-6-0.8-8.8c-0.4-4-1.6-7.6-2.8-11.2c-2-5.2-4.8-10-8-14.8c-10-14-27.2-23.2-46-23.2H10v20
		v15.2v58.8c2-2.4,4-5.2,6.8-8c1.2-1.6,2.4-2.8,4-4c2.8-2.8,5.6-5.2,8.8-7.2c4.8-3.2,10-6,15.6-7.6V46.5h38
		c12.4,0,22.4,10,22.4,22.4l0,0c0,12.4-10,22.4-22.4,22.4h-16c-32,0-58,25.6-58,57.6v59.2h35.2v-59.6c0-2.4,0.4-4.4,1.2-6.8
		c0.4-1.2,1.2-2.8,1.6-4c0.4-0.8,0.8-1.2,1.2-2c2.8-4,6.8-7.2,12-8.8c2-0.8,4.4-1.2,6.8-1.2h15.6V126.1z M475.6,74.1l-20.4,30.8
		L434,74.1h-44.4l44,61.2l-52.8,72H424l94.8-133.2H475.6z M363.2,70.8c-16.4,0-31.6,9.6-39.2,32V74.4h-37.2v133.2H324v-46
		c0-38,13.2-56,32.4-56c4.4,0,11.2,0.4,19.2,4.8l8.4-35.6C378.4,72.1,370.4,70.8,363.2,70.8z M486.4,150.4l-21.2,30l18.8,27.2h43.6
		L486.4,150.4z"/>
</g>
</svg>
